<svg width="1284" height="1284" viewBox="0 0 1284 1284" fill="none" xmlns="http://www.w3.org/2000/svg">
<path d="M1278.86 577.158V509.427H1029.77C977.766 509.427 954.333 541.527 950.481 572.664V573.627V509.427H877.293V577.158H950.16H1278.86ZM950.16 601.554L876.972 597.381V675.384C876.972 699.78 864.774 707.163 822.402 707.163H763.98C728.991 707.163 714.225 697.212 714.225 675.384V589.998L640.074 584.541V681.483H638.469C634.296 653.235 623.703 620.493 553.083 615.678L321 600.27C321 635.901 346.359 657.087 386.163 661.26L547.947 677.631C560.787 678.594 570.096 682.446 570.096 693.039C570.096 704.595 560.466 705.879 545.7 705.879H318.111V600.27L243.96 595.455V774.573H546.021C613.431 774.573 634.938 739.584 638.148 710.373H639.753C648.099 756.597 688.545 774.573 756.918 774.573H832.353C912.282 774.573 950.16 750.177 950.16 693.039V601.554ZM1185.45 615.357L953.37 601.554C953.37 637.185 976.803 660.939 1016.61 664.149L1181.92 676.989C1194.76 677.952 1202.47 681.162 1202.47 691.755C1202.47 701.706 1193.48 705.558 1174.86 705.558H949.518V774.573H1179.67C1252.22 774.573 1284 749.214 1284 691.434C1284 639.432 1255.43 619.851 1185.45 615.357ZM640.074 509.427H714.225V577.158H640.074V509.427ZM203.193 592.245L122.622 584.22L0 774.573H90.201L203.193 592.245ZM626.592 509.427H400.287C347.643 509.427 324.531 542.169 319.074 573.627V509.427H193.563C175.908 509.427 167.562 514.884 159.216 527.082L124.548 577.158H626.592V509.427Z" fill="black"/>
</svg>
