<svg width="800" height="800" viewBox="0 0 800 800" fill="none" xmlns="http://www.w3.org/2000/svg">
<path d="M675.866 85.1003L733.333 200H66.666L124.133 85.1003C126.899 79.5643 131.152 74.9077 136.415 71.6521C141.678 68.3964 147.744 66.6703 153.933 66.667H646.066C652.255 66.6703 658.32 68.3964 663.584 71.6521C668.847 74.9077 673.1 79.5643 675.866 85.1003ZM66.666 266.667H733.333V700C733.333 708.841 729.821 717.319 723.57 723.571C717.318 729.822 708.84 733.334 699.999 733.334H99.9993C91.1588 733.334 82.6803 729.822 76.4291 723.571C70.1779 717.319 66.666 708.841 66.666 700V266.667ZM166.666 600C166.666 608.841 170.178 617.319 176.429 623.571C182.68 629.822 191.159 633.334 199.999 633.334H333.333C342.173 633.334 350.652 629.822 356.903 623.571C363.154 617.319 366.666 608.841 366.666 600C366.666 591.16 363.154 582.681 356.903 576.43C350.652 570.179 342.173 566.667 333.333 566.667H199.999C191.159 566.667 182.68 570.179 176.429 576.43C170.178 582.681 166.666 591.16 166.666 600Z" fill="black"/>
</svg>
