<svg width="800" height="800" viewBox="0 0 800 800" fill="none" xmlns="http://www.w3.org/2000/svg">
<g clip-path="url(#clip0_276_7642)">
<path d="M400 800H386.667L470 576.667H583.333C603.333 576.667 623.333 560 630 543.333L720 300C733.333 260 710 226.667 670 226.667H513.333L383.333 586.667L310 790C130 746.667 0 590 0 400C0 216.667 123.333 63.3333 293.333 13.3333L216.667 226.667L86.6667 576.667H170L276.667 280H340L233.333 576.667H316.667L416.667 300C430 260 410 226.667 366.667 226.667H300L383.333 0H400C620 0 800 180 800 400C800 620 620 800 400 800ZM643.333 276.667H580L490 520H553.333L643.333 276.667Z" fill="black"/>
</g>
<defs>
<clipPath id="clip0_276_7642">
<rect width="800" height="800" fill="white"/>
</clipPath>
</defs>
</svg>
