<svg width="1554" height="897" viewBox="0 0 1554 897" fill="none" xmlns="http://www.w3.org/2000/svg">
<path d="M0 658.001C0 658.001 44.8431 658.046 95.6101 658.046C194.802 658.046 216.179 670.928 216.179 742.727C216.179 808.258 192.69 822.632 101.603 822.632H77.7923V896.107H0V658.001ZM103.348 774.276C136.986 774.276 138.731 771.084 138.731 742.727C138.731 709.433 136.986 709.112 103.348 709.112H77.7923V773.931C84.4281 774.276 93.4977 774.276 103.348 774.276Z" fill="black"/>
<path d="M229 773.933C229 678.323 246.841 650.999 340.407 650.999C434.25 650.999 451.447 678.323 451.447 773.933C451.447 868.809 434.25 896.109 340.407 896.109C246.841 896.109 229 868.809 229 773.933ZM374.711 773.933C374.711 709.826 372.943 705.601 340.407 705.601C307.826 705.601 306.425 709.826 306.425 773.933C306.425 837.627 307.826 841.852 340.407 841.852C372.943 841.852 374.711 837.627 374.711 773.933Z" fill="black"/>
<path d="M468.891 838.707C468.891 838.707 499.016 840.842 535.478 840.842C578.92 840.842 590.814 837.697 590.814 824.747C590.814 815.608 587.669 811.429 572.951 807.916L523.906 795.655C474.884 781.993 464 769.02 464 725.578C464 674.466 494.837 651 573.639 651C610.446 651 647.23 654.811 647.23 654.811L646.518 708.793C646.518 708.793 613.913 707.048 581.722 707.048C545.604 707.048 536.511 709.436 536.511 722.822C536.511 732.971 541.425 736.806 557.865 740.342L607.989 751.501C656.988 763.762 663.004 783.738 663.004 821.922C663.004 879.371 627.231 896.133 551.252 896.133C511.644 896.133 468.569 892.298 468.569 892.298L468.891 838.707Z" fill="black"/>
<path d="M676 651.001H753.792V889.131H676V651.001Z" fill="black"/>
<path d="M986 651.001H1063.75V889.131H986V651.001Z" fill="black"/>
<path d="M831.153 704.546H767V651.001H972.295V704.546H908.532V889.131H831.153V704.546Z" fill="black"/>
<path d="M1240.65 651.001H1319.09L1253.26 889.131H1142.22L1076 651.001H1154.46L1197.72 847.089L1240.65 651.001Z" fill="black"/>
<path d="M1331 766.933C1331 671.323 1348.84 643.999 1442.38 643.999C1536.32 643.999 1553.52 671.323 1553.52 766.933C1553.52 861.809 1536.32 889.109 1442.38 889.109C1348.84 889.109 1331 861.809 1331 766.933ZM1476.76 766.933C1476.76 702.826 1474.99 698.601 1442.38 698.601C1409.8 698.601 1408.42 702.826 1408.42 766.933C1408.42 830.627 1409.8 834.852 1442.38 834.852C1474.99 834.852 1476.76 830.627 1476.76 766.933Z" fill="black"/>
<path d="M777.222 -0.000175849C686.939 -0.000175849 609.72 51.0654 567.885 124.22C539.666 173.517 530.619 242.791 547.473 301.319C579.825 298.472 612.246 293.879 633.554 286.141C650.362 279.988 658.651 267.13 660.327 264.581C694.631 213.171 700.922 176.984 711.576 164.7C753.756 116.068 757.59 65.3931 757.957 50.5143C758.348 34.6023 781.01 26.8184 791.32 44.9118C799.15 58.6196 805.257 75.6108 803.65 97.7224C801.239 130.649 775.5 156.25 783.881 174.596C786.613 180.52 793.065 184.952 799.448 185.801C816.623 188.097 831.135 188.442 901.212 204.101C910.075 206.099 917.285 210.668 920.224 221.161C923.966 234.548 914.828 239.347 914.782 251.86C914.759 263.571 927.87 267.015 927.181 282.399C926.354 299.803 912.807 299.16 910.58 311.582C908.307 321.387 916.711 326.576 912.233 338.998C907.388 352.545 898.25 351.03 892.762 359.204C886.172 368.962 893.818 374.725 887.688 386.619C884.175 393.37 880.019 396.745 865.163 401.016C834.418 409.833 818.988 412.474 795.269 414.907C768.336 417.732 755.937 415.435 725.399 419.637C711.438 421.727 684.734 427.169 655.849 443.425C691.095 463.929 733.527 476.673 777.222 476.673C908.881 476.673 1015.65 369.904 1015.65 238.313C1015.65 106.654 908.881 -0.000175849 777.222 -0.000175849Z" fill="black"/>
</svg>
